<?xml version="1.0" encoding="UTF-8" standalone="no"?>
<!-- Squircle variant of glow (50% radius, K=2 superellipse, true Lame curve) -->

<svg
   width="1375.7469"
   height="1375.7469"
   viewBox="0 0 1375.7469 1375.7469"
   version="1.1"
   id="svg1"
   xmlns="http://www.w3.org/2000/svg"
   xmlns:svg="http://www.w3.org/2000/svg">
  <defs
     id="defs1">
    <filter
       style="color-interpolation-filters:sRGB"
       id="filter3"
       x="-0.10799999"
       y="-0.108"
       width="1.216"
       height="1.216">
      <feGaussianBlur
         stdDeviation="50.911691"
         id="feGaussianBlur3" />
    </filter>
  </defs>
  <g
     id="layer1"
     transform="translate(-122.54569,-162.64743)">
    <g
       id="g1"
       transform="translate(253.40376,284.58137)"
       style="display:inline">
      <g
         id="g8"
         style="display:inline">
        <path
           style="opacity:0.7;fill:#ffffff;fill-opacity:1;stroke:#ffffff;stroke-width:0;stroke-linecap:butt;stroke-miterlimit:4;stroke-dasharray:none;stroke-opacity:1;filter:url(#filter3)"
           id="path2"
           transform="translate(-8.6700182, 0.25409326)"
           d="M565.68,0 L654.3,0.09 L690.99,0.34 L719.11,0.77 L742.79,1.36 L763.6,2.13 L782.37,3.07 L799.58,4.18 L815.54,5.46 L830.47,6.91 L844.53,8.54 L857.83,10.34 L870.47,12.31 L882.51,14.46 L894.02,16.78 L905.05,19.28 L915.63,21.96 L925.79,24.81 L935.57,27.84 L944.99,31.05 L954.07,34.45 L962.83,38.02 L971.29,41.78 L979.45,45.73 L987.33,49.87 L994.94,54.19 L1002.29,58.71 L1009.39,63.42 L1016.25,68.33 L1022.87,73.44 L1029.26,78.75 L1035.42,84.27 L1041.37,90 L1047.1,95.95 L1052.62,102.11 L1057.93,108.5 L1063.04,115.12 L1067.95,121.98 L1072.66,129.08 L1077.18,136.43 L1081.5,144.04 L1085.64,151.92 L1089.59,160.08 L1093.35,168.54 L1096.92,177.3 L1100.32,186.38 L1103.53,195.8 L1106.56,205.58 L1109.41,215.74 L1112.09,226.32 L1114.59,237.35 L1116.91,248.86 L1119.06,260.9 L1121.03,273.54 L1122.83,286.84 L1124.46,300.9 L1125.91,315.83 L1127.19,331.79 L1128.3,349 L1129.24,367.77 L1130.01,388.58 L1130.6,412.26 L1131.03,440.38 L1131.28,477.07 L1131.37,565.68 L1131.37,565.68 L1131.28,654.3 L1131.03,690.99 L1130.6,719.11 L1130.01,742.79 L1129.24,763.6 L1128.3,782.37 L1127.19,799.58 L1125.91,815.54 L1124.46,830.47 L1122.83,844.53 L1121.03,857.83 L1119.06,870.47 L1116.91,882.51 L1114.59,894.02 L1112.09,905.05 L1109.41,915.63 L1106.56,925.79 L1103.53,935.57 L1100.32,944.99 L1096.92,954.07 L1093.35,962.83 L1089.59,971.29 L1085.64,979.45 L1081.5,987.33 L1077.18,994.94 L1072.66,1002.29 L1067.95,1009.39 L1063.04,1016.25 L1057.93,1022.87 L1052.62,1029.26 L1047.1,1035.42 L1041.37,1041.37 L1035.42,1047.1 L1029.26,1052.62 L1022.87,1057.93 L1016.25,1063.04 L1009.39,1067.95 L1002.29,1072.66 L994.94,1077.18 L987.33,1081.5 L979.45,1085.64 L971.29,1089.59 L962.83,1093.35 L954.07,1096.92 L944.99,1100.32 L935.57,1103.53 L925.79,1106.56 L915.63,1109.41 L905.05,1112.09 L894.02,1114.59 L882.51,1116.91 L870.47,1119.06 L857.83,1121.03 L844.53,1122.83 L830.47,1124.46 L815.54,1125.91 L799.58,1127.19 L782.37,1128.3 L763.6,1129.24 L742.79,1130.01 L719.11,1130.6 L690.99,1131.03 L654.3,1131.28 L565.68,1131.37 L565.68,1131.37 L477.07,1131.28 L440.38,1131.03 L412.26,1130.6 L388.58,1130.01 L367.77,1129.24 L349,1128.3 L331.79,1127.19 L315.83,1125.91 L300.9,1124.46 L286.84,1122.83 L273.54,1121.03 L260.9,1119.06 L248.86,1116.91 L237.35,1114.59 L226.32,1112.09 L215.74,1109.41 L205.58,1106.56 L195.8,1103.53 L186.38,1100.32 L177.3,1096.92 L168.54,1093.35 L160.08,1089.59 L151.92,1085.64 L144.04,1081.5 L136.43,1077.18 L129.08,1072.66 L121.98,1067.95 L115.12,1063.04 L108.5,1057.93 L102.11,1052.62 L95.95,1047.1 L90,1041.37 L84.27,1035.42 L78.75,1029.26 L73.44,1022.87 L68.33,1016.25 L63.42,1009.39 L58.71,1002.29 L54.19,994.94 L49.87,987.33 L45.73,979.45 L41.78,971.29 L38.02,962.83 L34.45,954.07 L31.05,944.99 L27.84,935.57 L24.81,925.79 L21.96,915.63 L19.28,905.05 L16.78,894.02 L14.46,882.51 L12.31,870.47 L10.34,857.83 L8.54,844.53 L6.91,830.47 L5.46,815.54 L4.18,799.58 L3.07,782.37 L2.13,763.6 L1.36,742.79 L0.77,719.11 L0.34,690.99 L0.09,654.3 L0,565.68 L0,565.68 L0.09,477.07 L0.34,440.38 L0.77,412.26 L1.36,388.58 L2.13,367.77 L3.07,349 L4.18,331.79 L5.46,315.83 L6.91,300.9 L8.54,286.84 L10.34,273.54 L12.31,260.9 L14.46,248.86 L16.78,237.35 L19.28,226.32 L21.96,215.74 L24.81,205.58 L27.84,195.8 L31.05,186.38 L34.45,177.3 L38.02,168.54 L41.78,160.08 L45.73,151.92 L49.87,144.04 L54.19,136.43 L58.71,129.08 L63.42,121.98 L68.33,115.12 L73.44,108.5 L78.75,102.11 L84.27,95.95 L90,90 L95.95,84.27 L102.11,78.75 L108.5,73.44 L115.12,68.33 L121.98,63.42 L129.08,58.71 L136.43,54.19 L144.04,49.87 L151.92,45.73 L160.08,41.78 L168.54,38.02 L177.3,34.45 L186.38,31.05 L195.8,27.84 L205.58,24.81 L215.74,21.96 L226.32,19.28 L237.35,16.78 L248.86,14.46 L260.9,12.31 L273.54,10.34 L286.84,8.54 L300.9,6.91 L315.83,5.46 L331.79,4.18 L349,3.07 L367.77,2.13 L388.58,1.36 L412.26,0.77 L440.38,0.34 L477.07,0.09 L565.68,0 Z" />
      </g>
    </g>
  </g>
</svg>
