<?xml version="1.0" encoding="UTF-8" standalone="no"?>
<!-- Squircle variant of glow (50% radius, K=2 superellipse) -->

<svg
   width="1375.7469"
   height="1375.7469"
   viewBox="0 0 1375.7469 1375.7469"
   version="1.1"
   id="svg1"
   xmlns="http://www.w3.org/2000/svg"
   xmlns:svg="http://www.w3.org/2000/svg">
  <defs
     id="defs1">
    <filter
       style="color-interpolation-filters:sRGB"
       id="filter3"
       x="-0.10799999"
       y="-0.108"
       width="1.216"
       height="1.216">
      <feGaussianBlur
         stdDeviation="50.911691"
         id="feGaussianBlur3" />
    </filter>
  </defs>
  <g
     id="layer1"
     transform="translate(-122.54569,-162.64743)">
    <g
       id="g1"
       transform="translate(253.40376,284.58137)"
       style="display:inline">
      <g
         id="g8"
         style="display:inline">
        <path
           style="opacity:0.7;fill:#ffffff;fill-opacity:1;stroke:#ffffff;stroke-width:0;stroke-linecap:butt;stroke-miterlimit:4;stroke-dasharray:none;stroke-opacity:1;filter:url(#filter3)"
           id="path2"
           transform="translate(-8.6700182, 0.25409326)"
           d="M565.69,0 L600.22,0 L633.15,0 L664.52,0 L694.39,0.01 L722.8,0.02 L749.81,0.04 L775.45,0.08 L799.78,0.14 L822.83,0.22 L844.67,0.34 L865.32,0.49 L884.84,0.7 L903.27,0.96 L920.64,1.3 L937,1.71 L952.38,2.21 L966.84,2.82 L980.4,3.54 L993.11,4.39 L1004.99,5.39 L1016.1,6.56 L1026.45,7.9 L1036.09,9.44 L1045.05,11.19 L1053.37,13.17 L1061.07,15.41 L1068.18,17.92 L1074.74,20.72 L1080.77,23.85 L1086.31,27.31 L1091.38,31.14 L1096.02,35.36 L1100.23,39.99 L1104.06,45.06 L1107.52,50.6 L1110.65,56.63 L1113.45,63.19 L1115.96,70.31 L1118.2,78 L1120.18,86.32 L1121.94,95.28 L1123.47,104.92 L1124.81,115.27 L1125.98,126.38 L1126.98,138.26 L1127.83,150.97 L1128.55,164.53 L1129.16,178.99 L1129.66,194.37 L1130.08,210.73 L1130.41,228.11 L1130.67,246.53 L1130.88,266.05 L1131.03,286.7 L1131.15,308.54 L1131.23,331.59 L1131.29,355.92 L1131.33,381.56 L1131.35,408.57 L1131.36,436.98 L1131.37,466.85 L1131.37,498.22 L1131.37,531.15 L1131.37,565.69 L1131.37,565.69 L1131.37,600.22 L1131.37,633.15 L1131.37,664.52 L1131.36,694.39 L1131.35,722.8 L1131.33,749.81 L1131.29,775.45 L1131.23,799.78 L1131.15,822.83 L1131.03,844.67 L1130.88,865.32 L1130.67,884.84 L1130.41,903.27 L1130.08,920.64 L1129.66,937 L1129.16,952.38 L1128.55,966.84 L1127.83,980.4 L1126.98,993.11 L1125.98,1004.99 L1124.81,1016.1 L1123.47,1026.45 L1121.94,1036.09 L1120.18,1045.05 L1118.2,1053.37 L1115.96,1061.07 L1113.45,1068.18 L1110.65,1074.74 L1107.52,1080.77 L1104.06,1086.31 L1100.23,1091.38 L1096.02,1096.02 L1091.38,1100.23 L1086.31,1104.06 L1080.77,1107.52 L1074.74,1110.65 L1068.18,1113.45 L1061.07,1115.96 L1053.37,1118.2 L1045.05,1120.18 L1036.09,1121.94 L1026.45,1123.47 L1016.1,1124.81 L1004.99,1125.98 L993.11,1126.98 L980.4,1127.83 L966.84,1128.55 L952.38,1129.16 L937,1129.66 L920.64,1130.08 L903.27,1130.41 L884.84,1130.67 L865.32,1130.88 L844.67,1131.03 L822.83,1131.15 L799.78,1131.23 L775.45,1131.29 L749.81,1131.33 L722.8,1131.35 L694.39,1131.36 L664.52,1131.37 L633.15,1131.37 L600.22,1131.37 L565.69,1131.37 L565.69,1131.37 L531.15,1131.37 L498.22,1131.37 L466.85,1131.37 L436.98,1131.36 L408.57,1131.35 L381.56,1131.33 L355.92,1131.29 L331.59,1131.23 L308.54,1131.15 L286.7,1131.03 L266.05,1130.88 L246.53,1130.67 L228.11,1130.41 L210.73,1130.08 L194.37,1129.66 L178.99,1129.16 L164.53,1128.55 L150.97,1127.83 L138.26,1126.98 L126.38,1125.98 L115.27,1124.81 L104.92,1123.47 L95.28,1121.94 L86.32,1120.18 L78,1118.2 L70.31,1115.96 L63.19,1113.45 L56.63,1110.65 L50.6,1107.52 L45.06,1104.06 L39.99,1100.23 L35.36,1096.02 L31.14,1091.38 L27.31,1086.31 L23.85,1080.77 L20.72,1074.74 L17.92,1068.18 L15.41,1061.07 L13.17,1053.37 L11.19,1045.05 L9.44,1036.09 L7.9,1026.45 L6.56,1016.1 L5.39,1004.99 L4.39,993.11 L3.54,980.4 L2.82,966.84 L2.21,952.38 L1.71,937 L1.3,920.64 L0.96,903.27 L0.7,884.84 L0.49,865.32 L0.34,844.67 L0.22,822.83 L0.14,799.78 L0.08,775.45 L0.04,749.81 L0.02,722.8 L0.01,694.39 L0,664.52 L0,633.15 L0,600.22 L0,565.69 L0,565.69 L0,531.15 L0,498.22 L0,466.85 L0.01,436.98 L0.02,408.57 L0.04,381.56 L0.08,355.92 L0.14,331.59 L0.22,308.54 L0.34,286.7 L0.49,266.05 L0.7,246.53 L0.96,228.11 L1.3,210.73 L1.71,194.37 L2.21,178.99 L2.82,164.53 L3.54,150.97 L4.39,138.26 L5.39,126.38 L6.56,115.27 L7.9,104.92 L9.44,95.28 L11.19,86.32 L13.17,78 L15.41,70.31 L17.92,63.19 L20.72,56.63 L23.85,50.6 L27.31,45.06 L31.14,39.99 L35.36,35.36 L39.99,31.14 L45.06,27.31 L50.6,23.85 L56.63,20.72 L63.19,17.92 L70.31,15.41 L78,13.17 L86.32,11.19 L95.28,9.44 L104.92,7.9 L115.27,6.56 L126.38,5.39 L138.26,4.39 L150.97,3.54 L164.53,2.82 L178.99,2.21 L194.37,1.71 L210.73,1.3 L228.11,0.96 L246.53,0.7 L266.05,0.49 L286.7,0.34 L308.54,0.22 L331.59,0.14 L355.92,0.08 L381.56,0.04 L408.57,0.02 L436.98,0.01 L466.85,0 L498.22,0 L531.15,0 L565.69,0 Z" />
      </g>
    </g>
  </g>
</svg>
